<svg t="1718935492801" class="icon" viewBox="0 0 1024 1024" version="1.1" xmlns="http://www.w3.org/2000/svg" p-id="5937" width="200" height="200"><path d="M500.31104 403.61472a10.24 10.24 0 0 1 10.24 10.24v51.2a10.24 10.24 0 0 1-10.24 10.24h-87.04v258.56h447.488v-258.56h-87.04a10.24 10.24 0 0 1-10.24-10.24v-51.2a10.24 10.24 0 0 1 10.24-10.24h138.24a20.48 20.48 0 0 1 20.48 20.48v487.424a20.48 20.48 0 0 1-20.48 20.48h-549.888a20.48 20.48 0 0 1-20.48-20.48v-487.424a20.48 20.48 0 0 1 20.48-20.48z m360.448 401.92h-447.488v54.784h447.488v-54.784z m-182.272-713.216v507.904a20.48 20.48 0 0 1-20.48 20.48h-138.24a10.24 10.24 0 0 1-10.24-10.24v-51.2a10.24 10.24 0 0 1 10.24-10.24h87.04v-258.56h-447.488v258.56h87.04a10.24 10.24 0 0 1 10.24 10.24v51.2a10.24 10.24 0 0 1-10.24 10.24h-138.24a20.48 20.48 0 0 1-20.48-20.48v-487.424a20.48 20.48 0 0 1 20.48-20.48h570.368z m-71.68 71.68h-447.488v54.784h447.488v-54.784z" fill="#5673f6" p-id="5938"></path></svg>