<svg t="1706518213120" class="icon" viewBox="0 0 1024 1024" version="1.1" xmlns="http://www.w3.org/2000/svg" p-id="6091" width="200" height="200"><path d="M478.354286 356.937143c-5.851429-5.851429-14.628571-5.851429-20.48 0v310.125714c5.851429 5.851429 14.628571 5.851429 20.48 0l144.822857-144.822857c5.851429-5.851429 5.851429-14.628571 0-20.48l-144.822857-144.822857z" fill="#00479d" p-id="6092"></path><path d="M512 234.057143c-153.6 0-277.942857 124.342857-277.942857 277.942857s124.342857 277.942857 277.942857 277.942857 277.942857-124.342857 277.942857-277.942857-124.342857-277.942857-277.942857-277.942857z m0 526.628571c-137.508571 0-248.685714-111.177143-248.685714-248.685714s111.177143-248.685714 248.685714-248.685714 248.685714 111.177143 248.685714 248.685714-111.177143 248.685714-248.685714 248.685714z" fill="#00479d" p-id="6093"></path><path d="M950.857143 0H73.142857C32.182857 0 0 32.182857 0 73.142857v877.714286c0 40.96 32.182857 73.142857 73.142857 73.142857h877.714286c40.96 0 73.142857-32.182857 73.142857-73.142857V73.142857c0-40.96-32.182857-73.142857-73.142857-73.142857zM512 819.2c-169.691429 0-307.2-137.508571-307.2-307.2s137.508571-307.2 307.2-307.2 307.2 137.508571 307.2 307.2-137.508571 307.2-307.2 307.2z" fill="#00479d" p-id="6094"></path></svg>